<svg xmlns="http://www.w3.org/2000/svg" width="488" height="424" fill="none" viewBox="0 0 488 424"><g filter="url(#filter0_d)"><mask id="mask0" width="226" height="384" x="16" y="14" mask-type="alpha" maskUnits="userSpaceOnUse"><rect width="226" height="384" x="16" y="14" fill="#C4C4C4"/></mask><g mask="url(#mask0)"><rect width="448" height="384" x="18" y="14" fill="#000" rx="61"/><rect width="283" height="241" x="101" y="105" fill="#595959" rx="28"/><rect width="430" height="366" x="27" y="23" stroke="#8A8A8A" stroke-width="18" rx="52"/><circle cx="69" cy="349" r="15" fill="#E8EC32"/><rect width="20" height="15" x="42" y="291.495" fill="#404040" rx="7.5"/><rect width="20" height="15" x="76" y="291.495" fill="#404040" rx="7.5"/><rect width="20" height="15" x="61.105" y="292" fill="#404040" rx="7.5" transform="rotate(-90 61.1045 292)"/><rect width="20" height="15" x="61.896" y="325.991" fill="#404040" rx="7.5" transform="rotate(-90 61.8958 325.991)"/></g><mask id="mask1" width="226" height="384" x="242" y="14" mask-type="alpha" maskUnits="userSpaceOnUse"><rect width="226" height="384" x="242" y="14" fill="#C4C4C4"/></mask><g mask="url(#mask1)"><rect width="448" height="384" x="18" y="14" fill="#fff" rx="61"/><rect width="283" height="241" x="101" y="105" fill="#C4C4C4" rx="28"/><path fill="#000" fill-rule="evenodd" d="M387.5 83.5131L407 94.3463L426.5 83.5131V62.4869L407 51.6536L387.5 62.4869V83.5131ZM407 40.5L377.75 56.75V89.25L407 105.5L436.25 89.25V56.75L407 40.5Z" clip-rule="evenodd"/><rect width="430" height="366" x="27" y="23" stroke="#8A8A8A" stroke-width="18" rx="52"/><circle cx="415" cy="349" r="15" fill="#E8EC32"/><rect width="20" height="15" x="388" y="291.495" fill="#C4C4C4" rx="7.5"/><rect width="20" height="15" x="422" y="291.495" fill="#C4C4C4" rx="7.5"/><rect width="20" height="15" x="407.104" y="292" fill="#C4C4C4" rx="7.5" transform="rotate(-90 407.104 292)"/><rect width="20" height="15" x="407.896" y="325.991" fill="#C4C4C4" rx="7.5" transform="rotate(-90 407.896 325.991)"/></g></g><defs><filter id="filter0_d" width="488" height="424" x="0" y="0" color-interpolation-filters="sRGB" filterUnits="userSpaceOnUse"><feFlood flood-opacity="0" result="BackgroundImageFix"/><feColorMatrix in="SourceAlpha" type="matrix" values="0 0 0 0 0 0 0 0 0 0 0 0 0 0 0 0 0 0 127 0"/><feOffset dx="2" dy="6"/><feGaussianBlur stdDeviation="10"/><feColorMatrix type="matrix" values="0 0 0 0 0 0 0 0 0 0 0 0 0 0 0 0 0 0 0.4 0"/><feBlend in2="BackgroundImageFix" mode="normal" result="effect1_dropShadow"/><feBlend in="SourceGraphic" in2="effect1_dropShadow" mode="normal" result="shape"/></filter></defs></svg>